<svg id="Layer_3" enable-background="new 0 0 64 64" height="512" viewBox="0 0 64 64" width="512" xmlns="http://www.w3.org/2000/svg"><path d="m32 1c-11.028 0-20 8.972-20 20v10c0 3.309 2.691 6 6 6h.332c.935 4.263 3.82 7.794 7.668 9.63v.37c0 .481.063.947.171 1.396l-8.295 1.914c-2.282.526-3.876 2.53-3.876 4.872v6.818c0 .553.447 1 1 1h34c.553 0 1-.447 1-1v-6.818c0-2.342-1.594-4.346-3.876-4.872l-8.295-1.914c.108-.449.171-.915.171-1.396v-.37c1.403-.669 2.681-1.555 3.779-2.63h6.221c.553 0 1-.447 1-1v-6.812c1.79-1.039 3-2.973 3-5.188v-10c0-11.028-8.972-20-20-20zm0 2c9.925 0 18 8.075 18 18v5.54c-.307-.276-.641-.52-1-.729v-1.811c0-9.374-7.626-17-17-17s-17 7.626-17 17v1.812c-.359.208-.693.453-1 .729v-5.541c0-9.925 8.075-18 18-18zm12 20v4h-3v-4h-2v4h-4v-6h-2v6h-1.586l-3.707-3.707c-.391-.391-1.023-.391-1.414 0l-3.707 3.707h-2.586v-4h-2v2c-.341 0-.674.035-1 .09v-1.09c0-8.271 6.729-15 15-15s15 6.729 15 15v1.09c-.326-.055-.659-.09-1-.09v-2zm-26 12c-2.206 0-4-1.794-4-4s1.794-4 4-4v7c0 .338.027.668.051 1zm30 20.182v5.818h-4v-4h-2v4h-20v-4h-2v4h-4v-5.818c0-1.405.956-2.607 2.325-2.923l5.871-1.355 1.834 7.338c.082.331.327.597.65.705.321.107.678.046.944-.166l4.376-3.501 4.375 3.501c.18.144.401.219.625.219.107 0 .216-.018.319-.053.323-.108.568-.374.65-.705l1.834-7.338 5.871 1.355c1.37.315 2.326 1.517 2.326 2.923zm-10.144-4.727-1.448 5.791-3.783-3.027c-.365-.291-.885-.291-1.25 0l-3.783 3.027-1.448-5.791.828-.191c1.071 1.644 2.923 2.736 5.028 2.736s3.957-1.092 5.028-2.736zm-5.856.545c-2.062 0-3.744-1.573-3.957-3.579 1.256.372 2.582.579 3.957.579s2.701-.207 3.957-.579c-.213 2.006-1.895 3.579-3.957 3.579zm0-5c-6.617 0-12-5.383-12-12v-5h3c.266 0 .52-.105.707-.293l3.293-3.293 3.293 3.293c.187.188.441.293.707.293h13v5c0 3.075-1.172 5.874-3.081 8h-8.919v2h6.619c-1.899 1.261-4.173 2-6.619 2zm15-4h-3.527c1.038-1.484 1.795-3.174 2.195-5h.332c.341 0 .674-.035 1-.09zm-1-7h-.051c.024-.332.051-.662.051-1v-7c2.206 0 4 1.794 4 4s-1.794 4-4 4z"/></svg>