<svg id="Layer_1" enable-background="new 0 0 512 512" height="512" viewBox="0 0 512 512" width="512" xmlns="http://www.w3.org/2000/svg"><g><circle cx="390.157" cy="70.68" fill="#ffb69e" r="42.362"/><path d="m391.977 135.316 28.185-10h26.007c26.739 0 48.602 21.589 48.734 48.126v146.63c-13.626.106-27.248.538-40.875.584v-147.047c-.042-4.025-3.633-7.418-7.859-7.418h-1.091v155.002h-54.921l-3.991-97.939z" fill="#1b1d1e"/><path d="m335.722 125.316h26.266l29.989 9v186.878h-55.164v-155.002h-1.091c-4.229 0-7.821 3.397-7.859 7.426v53.181h-40.875v-53.357c.132-26.537 21.994-48.126 48.734-48.126z" fill="#292c2d"/><path d="m420.161 125.316s-4.494 26.848-14.296 42.463c-3.174 5.056-8.821 8.02-14.791 8.02-5.969 0-11.617-2.964-14.791-8.02-9.802-15.615-14.296-42.463-14.296-42.463z" fill="#fff"/><path d="m327.862 203.139v28.835h47.588l7.621 20.438-7.621 20.438h-68.025c-11.287 0-20.438-9.15-20.438-20.438v-49.273z" fill="#292c2d"/><path d="m407.239 117.135-16.49 5.998-16.49-5.998c-1.959-.362-3.767 1.143-3.767 3.135v15.852c0 1.993 1.807 3.497 3.767 3.135l16.49-5.998 16.49 5.998c1.96.362 3.767-1.143 3.767-3.135v-15.852c0-1.992-1.808-3.497-3.767-3.135z" fill="#1b1d1e"/><path d="m405.278 198.735h-23.96c-1.405 0-2.511 1.201-2.395 2.601l4.785 57.98h19.181l4.785-57.98c.115-1.4-.991-2.601-2.396-2.601z" fill="#afe6ff"/><path d="m0 272.69h512v210.992h-512z" fill="#965028"/><path d="m251.906 181.009v-38.098h-16v38.098c-8.666 3.242-14.837 11.596-14.837 21.393v62.51c0 4.296 3.483 7.778 7.778 7.778h30.117c4.296 0 7.779-3.483 7.779-7.778v-62.51c0-9.797-6.171-18.15-14.837-21.393z" fill="#82be50"/><path d="m187.028 181.009v-38.098h-16v38.098c-8.666 3.242-14.837 11.596-14.837 21.393v62.51c0 4.296 3.483 7.778 7.778 7.778h30.117c4.296 0 7.778-3.482 7.778-7.778v-62.51c.001-9.797-6.17-18.15-14.836-21.393z" fill="#82be50"/><g fill="#fff"><path d="m150.42 337.719c0-4.051 4.304-6.077 8.608-6.077h25.953c12.661 0 25.321 4.558 25.321 22.535 0 10.255-4.052 16.965-10.762 19.877 7.723 2.912 13.04 7.596 13.04 20.256v2.659c0 20.003-11.141 27.219-25.447 27.219h-28.105c-5.317 0-8.608-2.785-8.608-5.95zm19.623 28.738h13.293c4.812 0 7.217-4.431 7.217-8.736 0-4.431-2.405-8.862-7.217-8.862h-13.293zm12.66 40.513c6.33 0 10.128-3.545 10.128-11.647v-2.026c0-8.609-3.798-11.647-10.128-11.647h-12.66v25.32z"/><path d="m216.501 416.085c0-.38.126-.886.253-1.393l23.548-77.228c1.393-4.431 7.09-6.583 12.913-6.583 5.824 0 11.521 2.152 12.914 6.583l23.674 77.228c.127.506.254 1.013.254 1.393 0 4.684-7.217 8.103-12.66 8.103-3.165 0-5.697-1.013-6.457-3.671l-4.305-15.825h-26.713l-4.305 15.825c-.76 2.659-3.291 3.671-6.456 3.671-5.444 0-12.66-3.419-12.66-8.103zm45.956-26.586-9.242-33.929-9.241 33.929z"/><path d="m297.394 337.592c0-3.165 2.405-5.951 6.076-5.951h26.207c17.345 0 31.145 6.457 31.145 27.093 0 14.179-6.457 22.282-15.319 25.7l15.445 27.979c.507.76.633 1.646.633 2.279 0 4.938-6.583 10.255-12.406 10.255-2.532 0-4.938-1.013-6.33-3.671l-17.346-33.676h-8.355v30.511c0 4.052-4.938 6.077-9.875 6.077s-9.875-2.025-9.875-6.077zm19.75 11.268v23.548h12.533c7.09 0 11.395-2.912 11.395-11.774s-4.305-11.774-11.395-11.774z"/></g><path d="m375.45 231.974h14.707l6.556 20.438-6.556 20.438h-14.707z" fill="#fff"/><path d="m390.157 231.974c11.287 0 20.438 9.15 20.438 20.438s-9.15 20.438-20.438 20.438z" fill="#ffb69e"/></g></svg>