<?xml version="1.0" standalone="no"?>
<!DOCTYPE svg PUBLIC "-//W3C//DTD SVG 20010904//EN"
 "http://www.w3.org/TR/2001/REC-SVG-20010904/DTD/svg10.dtd">
<svg version="1.0" xmlns="http://www.w3.org/2000/svg"
 width="1200.000000pt" height="717.000000pt" viewBox="0 0 1200.000000 717.000000"
 preserveAspectRatio="xMidYMid meet">
<metadata>
Created by potrace 1.16, written by Peter Selinger 2001-2019
</metadata>
<g transform="translate(0.000000,717.000000) scale(0.100000,-0.100000)"
fill="#000000" stroke="none">
<path d="M3170 5010 l0 -1940 350 0 350 0 0 198 0 197 42 -50 c157 -189 356
-319 585 -382 88 -25 114 -27 258 -27 140 1 172 4 260 27 421 112 740 468 850
950 86 374 64 885 -51 1196 -73 196 -159 327 -308 468 -153 145 -318 230 -527
273 -90 19 -128 21 -274 17 -148 -4 -182 -8 -260 -31 -168 -51 -304 -131 -448
-266 l-77 -72 0 691 0 691 -375 0 -375 0 0 -1940z m1521 334 c127 -37 255
-138 326 -256 137 -227 172 -747 72 -1058 -68 -209 -214 -364 -394 -416 -122
-35 -288 -16 -404 46 -157 84 -285 263 -335 465 -43 176 -54 490 -23 662 60
328 246 534 522 577 51 7 179 -3 236 -20z"/>
<path d="M7285 5933 c-440 -52 -693 -212 -858 -539 -41 -81 -102 -252 -94
-260 6 -7 669 -126 672 -122 1 2 20 42 43 89 51 107 112 176 188 213 194 95
584 57 678 -67 55 -71 70 -124 70 -241 l1 -109 -70 -24 c-113 -39 -283 -81
-541 -133 -596 -121 -790 -202 -947 -395 -63 -78 -131 -219 -153 -320 -26
-112 -23 -302 5 -410 105 -405 478 -639 971 -611 272 15 489 102 711 284 l89
73 10 -26 c6 -15 10 -29 10 -33 0 -3 16 -57 36 -119 l36 -113 375 0 c296 0
374 3 370 13 -95 221 -128 333 -148 498 -9 75 -13 318 -14 859 0 814 -2 842
-56 1003 -43 129 -123 226 -262 317 -143 94 -298 144 -529 169 -89 10 -521 13
-593 4z m695 -1940 c-15 -107 -54 -188 -127 -265 -190 -199 -506 -250 -693
-113 -142 104 -194 291 -121 432 25 48 94 115 146 141 67 33 192 70 360 107
180 41 380 90 416 103 l24 9 3 -166 c2 -91 -2 -203 -8 -248z"/>
<path d="M10640 5924 c-160 -42 -276 -140 -424 -357 l-46 -68 0 195 0 196
-345 0 -345 0 0 -1410 0 -1410 375 0 375 0 0 618 c0 817 16 1059 80 1248 63
187 151 281 296 319 119 31 234 12 376 -61 49 -26 90 -45 92 -43 7 10 226 637
226 648 0 19 -161 90 -267 117 -114 29 -301 33 -393 8z"/>
<path d="M1430 4706 c-293 -62 -551 -267 -672 -535 -57 -125 -80 -239 -80
-401 0 -162 23 -276 80 -401 114 -252 354 -455 621 -527 83 -22 117 -25 251
-25 134 0 168 3 251 25 158 43 283 113 403 227 207 199 298 409 299 696 1 231
-54 405 -183 576 -130 173 -304 292 -515 352 -91 26 -358 33 -455 13z"/>
<path d="M4807 2364 c-383 -69 -704 -374 -798 -759 -132 -540 196 -1089 736
-1231 87 -23 119 -27 255 -27 136 0 168 4 255 27 473 125 790 560 761 1046
-16 277 -126 508 -330 696 -230 212 -561 306 -879 248z m-287 -463 c19 -14 42
-34 51 -45 17 -20 17 -20 72 7 155 79 332 76 499 -9 222 -111 373 -327 393
-564 11 -122 -31 -268 -104 -359 l-19 -25 34 -41 c33 -41 71 -115 58 -115 -14
0 -124 73 -133 88 -8 14 -16 12 -71 -17 -84 -45 -149 -61 -250 -61 -101 0
-170 17 -265 64 -193 96 -339 285 -381 495 -32 164 1 298 111 447 7 10 0 24
-27 51 -40 43 -52 62 -66 116 l-11 38 37 -22 c20 -12 53 -34 72 -48z"/>
<path d="M4745 1836 c-22 -7 -49 -18 -60 -24 -51 -29 -51 -28 -6 -81 42 -50
42 -50 89 -44 37 4 51 2 61 -11 13 -15 11 -53 -3 -88 -5 -11 3 -28 28 -55 l36
-38 25 30 c65 78 90 184 60 249 -32 68 -129 94 -230 62z"/>
<path d="M4529 1678 c-45 -62 -62 -106 -63 -169 -1 -98 47 -143 153 -143 51 0
80 7 128 28 35 16 67 34 72 40 13 16 -56 89 -76 82 -44 -17 -65 -17 -83 -1
-24 22 -26 62 -4 94 16 22 15 24 -27 67 -24 24 -49 44 -56 44 -7 0 -27 -19
-44 -42z"/>
<path d="M9860 2374 c-220 -40 -406 -129 -553 -263 -82 -76 -173 -201 -224
-308 -186 -392 -107 -857 198 -1162 347 -347 890 -397 1301 -120 85 57 214
188 272 276 103 157 154 320 163 515 7 143 -5 238 -44 363 -103 329 -377 585
-721 677 -75 19 -327 34 -392 22z m417 -384 c81 -23 122 -79 99 -132 -7 -15
-3 -18 28 -18 75 0 145 -45 177 -115 16 -35 19 -68 19 -288 0 -270 -4 -293
-58 -350 -37 -39 -69 -55 -130 -63 l-52 -7 0 -114 c0 -85 4 -120 15 -137 24
-36 3 -71 -54 -93 -41 -16 -83 -18 -366 -18 -283 0 -325 2 -366 18 -56 22 -74
52 -53 92 12 23 14 118 14 551 0 465 -2 528 -16 549 -15 23 -15 27 2 56 26 44
80 69 167 79 102 12 523 4 574 -10z"/>
<path d="M9951 1816 c-8 -9 -10 -151 -9 -506 3 -457 4 -494 21 -504 12 -8 22
-8 35 0 16 10 17 47 20 504 2 509 2 520 -38 520 -10 0 -23 -6 -29 -14z"/>
<path d="M9805 1788 c-3 -7 -4 -224 -3 -483 l3 -470 29 -3 c16 -2 32 2 37 10
14 22 11 932 -3 946 -16 16 -57 15 -63 0z"/>
<path d="M10085 1788 c-3 -7 -4 -224 -3 -483 l3 -470 35 0 35 0 0 480 0 480
-33 3 c-20 2 -34 -2 -37 -10z"/>
<path d="M9665 1768 c-3 -7 -4 -215 -3 -463 l3 -450 24 -3 c50 -7 51 -1 51
461 0 276 -4 435 -10 448 -12 21 -58 26 -65 7z"/>
<path d="M10232 1768 c-9 -9 -12 -124 -12 -454 0 -476 -1 -470 52 -462 l23 3
3 449 c1 323 -1 453 -9 462 -14 17 -41 18 -57 2z"/>
<path d="M10360 1445 c0 -281 0 -285 20 -285 31 0 74 25 104 60 l26 32 0 193
c0 192 0 194 -25 223 -26 31 -81 62 -109 62 -14 0 -16 -31 -16 -285z"/>
<path d="M7334 2355 c-338 -60 -638 -301 -762 -611 -148 -371 -83 -769 175
-1071 191 -223 504 -354 813 -340 257 12 473 104 659 282 218 209 321 471 308
782 -11 271 -115 503 -307 686 -194 186 -407 275 -675 283 -85 2 -158 -2 -211
-11z m254 -151 c27 -19 28 -55 2 -79 -19 -17 -20 -31 -20 -184 l1 -166 42 -20
c25 -12 50 -34 62 -55 19 -34 20 -55 23 -563 2 -356 -1 -540 -8 -568 -6 -22
-24 -54 -40 -72 l-28 -32 -130 -3 c-151 -4 -180 5 -212 68 -19 38 -20 58 -20
585 0 384 3 553 11 568 20 38 61 76 90 82 l29 7 0 168 c0 160 -1 168 -21 182
-27 17 -29 66 -3 85 27 19 193 18 222 -3z"/>
</g>
</svg>
